<svg xmlns="http://www.w3.org/2000/svg" width="54" height="54">
    <g fill="none" fill-rule="evenodd">
        <path stroke="#07b132" stroke-width="4" d="M 2.624 0 L 9.216 0.384 L 19.2 0 A 20.699 20.699 0 0 1 26.596 1.405 A 25.21 25.21 0 0 1 28.672 2.304 A 20.514 20.514 0 0 1 33.32 5.326 A 19.219 19.219 0 0 1 33.664 5.632 Q 35.708 7.496 37.131 10.631 A 22.282 22.282 0 0 1 37.312 11.04 A 16.912 16.912 0 0 1 38.369 14.581 Q 38.68 16.226 38.758 18.11 A 31.05 31.05 0 0 1 38.784 19.392 A 24.658 24.658 0 0 1 37.495 27.151 A 29.514 29.514 0 0 1 36.672 29.344 A 27.859 27.859 0 0 1 33.979 34.332 A 22.665 22.665 0 0 1 31.168 37.696 Q 27.776 41.024 23.584 42.976 Q 19.392 44.928 15.072 44.928 Q 10.851 44.928 8.402 43.981 A 8.897 8.897 0 0 1 8.288 43.936 A 4.914 4.914 0 0 1 7.097 43.269 A 3.231 3.231 0 0 1 5.824 40.576 Q 5.824 39.592 6.034 34.779 A 1316.024 1316.024 0 0 1 6.112 33.024 Q 6.4 26.624 6.4 21.952 Q 6.4 17.59 6.289 14.093 A 171.483 171.483 0 0 0 6.272 13.6 Q 6.144 9.92 5.984 7.68 Q 5.853 5.85 5.83 5.045 A 10.63 10.63 0 0 1 5.824 4.736 A 199.603 199.603 0 0 1 4.769 4.789 Q 3.182 4.864 2.496 4.864 A 2.428 2.428 0 0 1 1.235 4.504 A 3.323 3.323 0 0 1 0.8 4.192 Q 0 3.52 0 2.432 A 2.395 2.395 0 0 1 0.159 1.546 A 2.175 2.175 0 0 1 0.8 0.672 Q 1.6 0 2.624 0 Z M 11.808 7.392 Q 11.648 9.6 11.52 13.344 Q 11.392 17.088 11.392 23.744 Q 11.392 28.32 11.664 34.167 A 372.187 372.187 0 0 0 11.968 39.744 Q 13.501 40.209 15.674 40.336 A 29.685 29.685 0 0 0 17.408 40.384 A 14.652 14.652 0 0 0 25.75 37.732 A 21.201 21.201 0 0 0 28.864 35.136 A 17.706 17.706 0 0 0 34.008 23.918 A 23.943 23.943 0 0 0 34.112 21.664 A 21.999 21.999 0 0 0 33.53 16.449 A 14.628 14.628 0 0 0 29.184 8.928 Q 24.256 4.416 15.168 4.416 Q 13.105 4.416 12.128 4.47 A 14.472 14.472 0 0 0 11.968 4.48 Q 11.968 5.184 11.808 7.392 Z"/>
    </g>
</svg>
