<?xml version="1.0" encoding="UTF-8"?>
<svg width="258.25" height="37.803" viewBox="0 0 258.25 37.803" xmlns="http://www.w3.org/2000/svg">
    <g id="svgGroup" stroke-linecap="round" fill-rule="evenodd" font-size="9pt">
        <path id="DaikonHouse" fill="#07b132" d="M 74 2.4 L 73.55 18.5 L 73.55 21.55 Q 75.65 18.45 78.9 16.575 A 18.702 18.702 0 0 1 80.853 15.586 Q 82.916 14.7 84.6 14.7 A 11.933 11.933 0 0 1 86.163 14.793 Q 87.846 15.017 88.596 15.778 A 2.145 2.145 0 0 1 89.2 17.35 A 2.916 2.916 0 0 1 89.097 18.145 A 2.213 2.213 0 0 1 88.525 19.125 A 3.043 3.043 0 0 1 88.114 19.474 Q 87.644 19.8 87.175 19.8 Q 86.523 19.8 85.055 19.241 A 21.94 21.94 0 0 1 84.95 19.2 Q 83.4 18.6 81.9 18.6 A 7.771 7.771 0 0 0 78.941 19.142 Q 77.15 19.872 75.902 21.585 A 9.148 9.148 0 0 0 75.65 21.95 A 118.465 118.465 0 0 0 81.124 26.898 A 92.501 92.501 0 0 0 85.25 30.2 A 115.68 115.68 0 0 1 86.58 31.216 Q 89.145 33.207 89.674 33.914 A 1.633 1.633 0 0 1 89.7 33.95 A 3.48 3.48 0 0 1 90.121 34.731 A 2.735 2.735 0 0 1 90.3 35.7 A 2.218 2.218 0 0 1 90.164 36.49 A 1.993 1.993 0 0 1 89.7 37.2 A 2.017 2.017 0 0 1 88.534 37.771 A 2.809 2.809 0 0 1 88.125 37.8 A 2.17 2.17 0 0 1 87.359 37.649 Q 86.735 37.414 86.026 36.813 A 7.982 7.982 0 0 1 85.925 36.725 A 42.367 42.367 0 0 1 85.285 36.15 Q 84.268 35.219 82.472 33.501 A 489.265 489.265 0 0 1 81.3 32.375 A 100.67 100.67 0 0 0 76.738 28.252 A 122.151 122.151 0 0 0 73.7 25.75 A 416.069 416.069 0 0 1 73.831 28.716 Q 74 32.888 74 35.4 Q 74 36.45 73.4 37.125 A 1.959 1.959 0 0 1 71.968 37.798 A 2.585 2.585 0 0 1 71.85 37.8 Q 70.9 37.8 70.225 37.125 A 1.978 1.978 0 0 1 69.788 36.432 Q 69.565 35.859 69.551 35.014 A 6.897 6.897 0 0 1 69.55 34.9 Q 69.55 33.35 69.8 27.525 Q 69.992 23.065 70.036 20.144 A 107.695 107.695 0 0 0 70.05 18.5 Q 70.05 15.3 69.8 9.9 A 637.814 637.814 0 0 1 69.703 7.722 Q 69.55 4.161 69.55 2.95 Q 69.55 1.4 70.225 0.7 Q 70.9 0 71.85 0 A 2.173 2.173 0 0 1 72.636 0.138 A 1.951 1.951 0 0 1 73.4 0.675 Q 74 1.35 74 2.4 Z M 160.75 33.85 L 158.55 23.4 A 11.966 11.966 0 0 0 158.094 21.809 Q 157.801 21.011 157.411 20.374 A 6.181 6.181 0 0 0 156.975 19.75 A 3.416 3.416 0 0 0 155.14 18.578 Q 154.483 18.4 153.675 18.4 A 5.2 5.2 0 0 0 152.205 18.597 A 3.891 3.891 0 0 0 150.225 19.925 A 5.897 5.897 0 0 0 149.258 21.617 A 5.206 5.206 0 0 0 148.95 23.25 Q 149.3 33.604 149.344 35.427 A 18.225 18.225 0 0 1 149.35 35.775 A 1.667 1.667 0 0 1 149.181 36.492 Q 149.069 36.73 148.883 36.967 A 3.367 3.367 0 0 1 148.75 37.125 A 1.959 1.959 0 0 1 147.318 37.798 A 2.585 2.585 0 0 1 147.2 37.8 Q 146.25 37.8 145.575 37.125 A 1.978 1.978 0 0 1 145.138 36.432 Q 144.915 35.859 144.901 35.014 A 6.897 6.897 0 0 1 144.9 34.9 Q 144.9 33.35 145.15 27.525 Q 145.342 23.065 145.386 20.144 A 107.695 107.695 0 0 0 145.4 18.5 Q 145.4 15.3 145.15 9.9 A 637.814 637.814 0 0 1 145.053 7.722 Q 144.9 4.161 144.9 2.95 Q 144.9 1.4 145.575 0.7 Q 146.25 0 147.2 0 A 2.173 2.173 0 0 1 147.986 0.138 A 1.951 1.951 0 0 1 148.75 0.675 Q 149.35 1.35 149.35 2.875 Q 149.35 4.354 149.139 9.64 A 980.313 980.313 0 0 1 149.125 9.975 A 377.975 377.975 0 0 0 149.027 12.636 Q 148.918 15.903 148.903 18.329 A 122.416 122.416 0 0 0 148.9 19.1 A 13.688 13.688 0 0 1 150.631 16.973 Q 152.933 14.7 155.7 14.7 Q 160.286 14.7 162.01 20.079 A 17.204 17.204 0 0 1 162.45 21.75 L 164.35 30.35 Q 164.65 31.8 165.675 32.925 A 4.813 4.813 0 0 1 166.248 33.684 Q 166.545 34.178 166.647 34.676 A 2.608 2.608 0 0 1 166.7 35.2 Q 166.7 36.35 165.9 37.075 A 2.999 2.999 0 0 1 165.198 37.558 A 2.371 2.371 0 0 1 164.15 37.8 Q 163.419 37.8 162.895 37.593 A 2.167 2.167 0 0 1 162.6 37.45 Q 162 37.1 161.6 36.4 Q 161.105 35.455 160.812 34.145 A 13.509 13.509 0 0 1 160.75 33.85 Z M 122.65 23.2 L 122.95 35.4 Q 122.95 36.45 122.35 37.125 A 1.959 1.959 0 0 1 120.918 37.798 A 2.585 2.585 0 0 1 120.8 37.8 Q 119.85 37.8 119.175 37.125 A 2.278 2.278 0 0 1 118.511 35.657 A 3.062 3.062 0 0 1 118.5 35.4 L 118.85 25.5 L 118.5 17.15 A 2.684 2.684 0 0 1 118.646 16.25 A 2.334 2.334 0 0 1 119.175 15.4 Q 119.85 14.7 120.8 14.7 A 2.173 2.173 0 0 1 121.586 14.838 A 1.951 1.951 0 0 1 122.35 15.375 A 2.36 2.36 0 0 1 122.938 16.768 A 3.114 3.114 0 0 1 122.95 17.05 Q 122.95 17.816 122.921 18.288 A 7.019 7.019 0 0 1 122.9 18.55 A 12.095 12.095 0 0 1 124.638 16.604 Q 125.878 15.503 127.26 15.039 A 6.518 6.518 0 0 1 129.35 14.7 Q 133.936 14.7 135.66 20.079 A 17.204 17.204 0 0 1 136.1 21.75 L 138 30.35 Q 138.247 31.298 138.919 32.365 A 11.668 11.668 0 0 0 139.225 32.825 Q 139.82 33.678 140.033 34.417 A 2.837 2.837 0 0 1 140.15 35.2 A 3.906 3.906 0 0 1 140.031 36.213 Q 139.603 37.8 137.65 37.8 A 2.635 2.635 0 0 1 135.344 36.48 Q 135.011 35.968 134.765 35.258 A 10.062 10.062 0 0 1 134.4 33.85 L 132.5 23.4 Q 131.598 18.651 127.763 18.413 A 6.664 6.664 0 0 0 127.35 18.4 A 5.124 5.124 0 0 0 125.928 18.587 A 3.82 3.82 0 0 0 124 19.85 Q 122.8 21.3 122.65 23.2 Z M 210.1 28.95 L 209.6 17.7 Q 209.6 16.497 210.136 15.711 A 2.659 2.659 0 0 1 210.275 15.525 A 2.476 2.476 0 0 1 210.82 15.022 A 1.913 1.913 0 0 1 211.9 14.7 A 1.847 1.847 0 0 1 213.305 15.304 A 2.388 2.388 0 0 1 213.45 15.475 Q 213.966 16.141 214.038 17.213 A 5.364 5.364 0 0 1 214.05 17.575 A 16.439 16.439 0 0 1 214.024 18.457 Q 213.961 19.613 213.75 21.3 A 85.629 85.629 0 0 0 213.34 25.309 Q 213.15 27.763 213.15 29.9 A 4.701 4.701 0 0 0 213.763 32.2 A 6.038 6.038 0 0 0 214.125 32.775 A 7.164 7.164 0 0 1 214.637 33.603 Q 215.1 34.492 215.1 35.25 A 2.648 2.648 0 0 1 214.935 36.199 A 2.393 2.393 0 0 1 214.35 37.075 A 2.707 2.707 0 0 1 213.656 37.571 A 2.267 2.267 0 0 1 212.65 37.8 Q 210.263 37.8 210.155 34.199 A 11.658 11.658 0 0 1 210.15 33.85 Q 207.8 37.8 204.25 37.8 A 6.374 6.374 0 0 1 202.138 37.465 A 5.353 5.353 0 0 1 199.725 35.75 A 11.088 11.088 0 0 1 197.862 32.38 A 13.96 13.96 0 0 1 197.4 30.75 L 195.5 22.15 Q 195.2 20.7 194.175 19.575 A 4.813 4.813 0 0 1 193.602 18.816 Q 193.306 18.323 193.204 17.824 A 2.608 2.608 0 0 1 193.15 17.3 Q 193.15 16.15 193.95 15.425 Q 194.75 14.7 195.85 14.7 A 2.635 2.635 0 0 1 198.156 16.02 Q 198.489 16.532 198.735 17.242 A 10.062 10.062 0 0 1 199.1 18.65 L 201 29.1 A 10.438 10.438 0 0 0 201.552 31.048 Q 202.781 34.1 205.75 34.1 A 3.721 3.721 0 0 0 208.564 32.894 A 4.776 4.776 0 0 0 208.8 32.625 A 5.708 5.708 0 0 0 209.963 30.099 A 7.608 7.608 0 0 0 210.1 28.95 Z M 2.05 2.7 L 7.2 3 L 15 2.7 Q 18.7 2.7 22.4 4.5 A 16.026 16.026 0 0 1 26.031 6.861 A 15.014 15.014 0 0 1 26.3 7.1 A 10.17 10.17 0 0 1 27.907 8.998 Q 28.593 10.029 29.15 11.325 A 13.213 13.213 0 0 1 29.976 14.091 Q 30.3 15.805 30.3 17.85 A 19.264 19.264 0 0 1 29.293 23.912 A 23.058 23.058 0 0 1 28.65 25.625 A 21.765 21.765 0 0 1 26.546 29.522 A 17.707 17.707 0 0 1 24.35 32.15 Q 21.7 34.75 18.425 36.275 A 16.014 16.014 0 0 1 13.456 37.705 A 14.856 14.856 0 0 1 11.775 37.8 A 23.897 23.897 0 0 1 9.807 37.724 Q 7.865 37.563 6.564 37.06 A 6.955 6.955 0 0 1 6.475 37.025 A 3.839 3.839 0 0 1 5.545 36.504 A 2.524 2.524 0 0 1 4.55 34.4 Q 4.55 33.631 4.714 29.871 A 1028.158 1028.158 0 0 1 4.775 28.5 Q 5 23.5 5 19.85 A 228.482 228.482 0 0 0 4.978 16.599 Q 4.956 15.071 4.913 13.71 A 133.907 133.907 0 0 0 4.9 13.325 A 222.103 222.103 0 0 0 4.849 11.958 Q 4.78 10.286 4.701 9.082 A 64.69 64.69 0 0 0 4.675 8.7 A 124.057 124.057 0 0 1 4.626 7.992 Q 4.568 7.102 4.554 6.642 A 8.305 8.305 0 0 1 4.55 6.4 Q 2.991 6.482 2.24 6.497 A 14.989 14.989 0 0 1 1.95 6.5 A 1.897 1.897 0 0 1 0.965 6.219 A 2.596 2.596 0 0 1 0.625 5.975 A 1.689 1.689 0 0 1 0.005 4.744 A 2.204 2.204 0 0 1 0 4.6 A 1.871 1.871 0 0 1 0.124 3.908 A 1.699 1.699 0 0 1 0.625 3.225 Q 1.25 2.7 2.05 2.7 Z M 250.85 27.55 L 244.9 27.05 A 7.894 7.894 0 0 0 244.403 27.065 Q 243.894 27.097 243.55 27.2 Q 243.85 30.05 245.975 31.95 Q 248.1 33.85 251 33.85 A 7.181 7.181 0 0 0 255.605 32.181 A 9.388 9.388 0 0 0 256.05 31.8 Q 256.85 31.1 257.25 31.1 A 0.954 0.954 0 0 1 257.931 31.381 A 1.253 1.253 0 0 1 257.95 31.4 A 1.177 1.177 0 0 1 258.127 31.622 A 0.815 0.815 0 0 1 258.25 32.05 Q 258.25 33.5 255.425 35.65 Q 252.6 37.8 249.025 37.8 A 7.935 7.935 0 0 1 243.368 35.459 A 10.901 10.901 0 0 1 242.825 34.9 A 10.083 10.083 0 0 1 240.241 28.754 A 13.279 13.279 0 0 1 240.2 27.7 A 11.9 11.9 0 0 1 243.848 18.926 A 14.862 14.862 0 0 1 244.35 18.45 A 15.358 15.358 0 0 1 248.144 15.887 A 12.521 12.521 0 0 1 253.5 14.7 A 9.969 9.969 0 0 1 254.909 14.794 Q 255.639 14.898 256.244 15.119 A 4.945 4.945 0 0 1 256.925 15.425 A 3.589 3.589 0 0 1 257.536 15.839 Q 258.25 16.449 258.25 17.275 A 3.051 3.051 0 0 1 258.143 18.104 A 2.315 2.315 0 0 1 257.575 19.1 A 3.201 3.201 0 0 1 257.187 19.446 Q 256.965 19.612 256.745 19.7 A 1.321 1.321 0 0 1 256.25 19.8 Q 255.647 19.8 254.249 19.284 A 22.884 22.884 0 0 1 254.025 19.2 A 9.492 9.492 0 0 0 252.387 18.732 A 7.557 7.557 0 0 0 251 18.6 A 7.513 7.513 0 0 0 248.192 19.114 A 7.018 7.018 0 0 0 246.325 20.225 Q 244.35 21.85 243.7 24.25 L 250.6 23.85 A 4.311 4.311 0 0 1 251.44 23.924 Q 252.757 24.187 252.886 25.38 A 2.511 2.511 0 0 1 252.9 25.65 Q 252.9 27.15 251.622 27.466 A 3.229 3.229 0 0 1 250.85 27.55 Z M 223.111 37.703 A 7.461 7.461 0 0 0 224.35 37.8 A 13.595 13.595 0 0 0 227.566 37.42 A 14.451 14.451 0 0 0 232.55 35.1 A 14.213 14.213 0 0 0 233.67 34.221 Q 236.35 31.879 236.35 29.15 A 3.784 3.784 0 0 0 235.521 26.728 A 5.01 5.01 0 0 0 234.425 25.725 Q 232.5 24.4 230.2 23.95 A 28.012 28.012 0 0 1 228.663 23.605 A 23.132 23.132 0 0 1 225.975 22.75 A 7.453 7.453 0 0 1 225.4 22.5 Q 224.68 22.147 224.344 21.743 A 1.145 1.145 0 0 1 224.05 21 Q 224.05 20.265 224.712 19.692 A 3.546 3.546 0 0 1 225.275 19.3 A 5.123 5.123 0 0 1 226.727 18.749 A 6.737 6.737 0 0 1 228.175 18.6 Q 229.85 18.6 231.4 19.2 A 21.94 21.94 0 0 0 231.505 19.241 Q 232.973 19.8 233.625 19.8 Q 234.094 19.8 234.564 19.474 A 3.043 3.043 0 0 0 234.975 19.125 Q 235.65 18.45 235.65 17.3 A 2.046 2.046 0 0 0 235.182 15.967 A 2.783 2.783 0 0 0 234.575 15.425 Q 233.5 14.7 231.5 14.7 Q 227.35 14.7 223.9 17.175 A 13.051 13.051 0 0 0 222.434 18.384 Q 221.671 19.122 221.202 19.878 A 4.637 4.637 0 0 0 220.45 22.35 A 3.578 3.578 0 0 0 220.799 23.934 A 3.806 3.806 0 0 0 221.725 25.125 A 7.561 7.561 0 0 0 222.778 25.902 A 8.729 8.729 0 0 0 224.8 26.8 Q 226.6 27.35 228.4 27.775 Q 229.328 27.994 230.117 28.287 A 10.149 10.149 0 0 1 231.475 28.9 Q 232.75 29.6 232.75 30.875 A 1.83 1.83 0 0 1 232.39 31.963 Q 231.968 32.553 231.05 33.025 A 8.705 8.705 0 0 1 230.069 33.458 A 6.903 6.903 0 0 1 227.675 33.9 Q 226 33.9 224.45 33.3 A 21.94 21.94 0 0 0 224.345 33.26 Q 222.877 32.7 222.225 32.7 Q 221.756 32.7 221.286 33.026 A 3.043 3.043 0 0 0 220.875 33.375 A 2.216 2.216 0 0 0 220.295 34.395 A 3.044 3.044 0 0 0 220.2 35.175 Q 220.2 36.3 221.35 37.05 Q 222.087 37.531 223.111 37.703 Z M 47.75 33.55 L 47.35 32.45 A 11.756 11.756 0 0 1 45.663 35.096 A 7.531 7.531 0 0 1 39.7 37.8 A 6.568 6.568 0 0 1 37.603 37.478 A 5.559 5.559 0 0 1 35.475 36.175 A 5.416 5.416 0 0 1 33.802 32.252 A 7.057 7.057 0 0 1 33.8 32.1 Q 33.8 28.3 36.4 25.55 A 9.3 9.3 0 0 1 41.989 22.716 A 12.5 12.5 0 0 1 43.2 22.6 A 10.695 10.695 0 0 0 42.385 21.366 Q 41.911 20.753 41.394 20.306 A 5.709 5.709 0 0 0 40.975 19.975 Q 40.131 19.373 39.394 19.114 A 3.528 3.528 0 0 0 38.75 18.95 Q 37.75 18.8 36.875 18.775 Q 36 18.75 35.5 18.4 Q 35 18.05 35 17.025 Q 35 16 35.825 15.35 A 3.026 3.026 0 0 1 37.516 14.71 A 3.864 3.864 0 0 1 37.8 14.7 A 7.1 7.1 0 0 1 41.125 15.564 Q 42.674 16.376 44.2 17.95 A 16.69 16.69 0 0 1 46.271 20.622 Q 48.158 23.589 49.7 28.15 L 50.65 30.8 Q 51 31.7 52.125 33.225 A 10.107 10.107 0 0 1 52.617 33.952 Q 53.075 34.701 53.202 35.281 A 1.968 1.968 0 0 1 53.25 35.7 Q 53.25 36.608 52.794 37.173 A 1.856 1.856 0 0 1 52.75 37.225 A 1.643 1.643 0 0 1 51.632 37.789 A 2.31 2.31 0 0 1 51.4 37.8 A 2.241 2.241 0 0 1 49.955 37.227 Q 49.116 36.533 48.367 34.996 A 16.825 16.825 0 0 1 47.75 33.55 Z M 9.225 8.475 A 68.591 68.591 0 0 0 9.164 9.413 Q 9.103 10.457 9.048 11.82 A 223.872 223.872 0 0 0 9 13.125 Q 8.924 15.365 8.906 18.938 A 461.477 461.477 0 0 0 8.9 21.25 A 149.469 149.469 0 0 0 8.963 25.445 Q 9.016 27.317 9.113 29.393 A 290.774 290.774 0 0 0 9.35 33.75 A 10.087 10.087 0 0 0 10.713 34.054 Q 11.42 34.164 12.245 34.213 A 23.191 23.191 0 0 0 13.6 34.25 A 11.447 11.447 0 0 0 20.117 32.178 A 16.563 16.563 0 0 0 22.55 30.15 A 13.832 13.832 0 0 0 26.569 21.386 A 18.706 18.706 0 0 0 26.65 19.625 A 17.186 17.186 0 0 0 26.195 15.551 A 11.428 11.428 0 0 0 22.8 9.675 A 12.545 12.545 0 0 0 17.879 6.951 Q 15.978 6.375 13.695 6.213 A 26.097 26.097 0 0 0 11.85 6.15 Q 10.239 6.15 9.475 6.193 A 11.307 11.307 0 0 0 9.35 6.2 A 9.012 9.012 0 0 1 9.344 6.497 Q 9.323 7.127 9.225 8.475 Z M 95.042 35.676 A 6.709 6.709 0 0 0 100.05 37.8 A 11.911 11.911 0 0 0 103.039 37.416 A 14.266 14.266 0 0 0 106.4 36.05 Q 109.55 34.3 111.9 30.775 A 15.855 15.855 0 0 0 112.787 29.277 A 12.466 12.466 0 0 0 114.25 23.475 A 11.883 11.883 0 0 0 114.14 21.83 A 8.804 8.804 0 0 0 112.1 17.2 A 8.595 8.595 0 0 0 111.758 16.825 A 6.709 6.709 0 0 0 106.75 14.7 A 11.911 11.911 0 0 0 103.761 15.085 A 14.266 14.266 0 0 0 100.4 16.45 Q 97.25 18.2 94.9 21.725 A 15.855 15.855 0 0 0 94.013 23.223 A 12.466 12.466 0 0 0 92.55 29.025 A 11.883 11.883 0 0 0 92.66 30.67 A 8.804 8.804 0 0 0 94.7 35.3 A 8.595 8.595 0 0 0 95.042 35.676 Z M 172.192 35.676 A 6.709 6.709 0 0 0 177.2 37.8 A 11.911 11.911 0 0 0 180.189 37.416 A 14.266 14.266 0 0 0 183.55 36.05 Q 186.7 34.3 189.05 30.775 A 15.855 15.855 0 0 0 189.937 29.277 A 12.466 12.466 0 0 0 191.4 23.475 A 11.883 11.883 0 0 0 191.29 21.83 A 8.804 8.804 0 0 0 189.25 17.2 A 8.595 8.595 0 0 0 188.908 16.825 A 6.709 6.709 0 0 0 183.9 14.7 A 11.911 11.911 0 0 0 180.911 15.085 A 14.266 14.266 0 0 0 177.55 16.45 Q 174.4 18.2 172.05 21.725 A 15.855 15.855 0 0 0 171.163 23.223 A 12.466 12.466 0 0 0 169.7 29.025 A 11.883 11.883 0 0 0 169.81 30.67 A 8.804 8.804 0 0 0 171.85 35.3 A 8.595 8.595 0 0 0 172.192 35.676 Z M 58.138 24.715 A 149.962 149.962 0 0 0 58.05 22.8 Q 57.8 18.05 57.8 17.2 A 2.297 2.297 0 0 1 58.044 16.187 Q 58.206 15.854 58.475 15.525 A 2.476 2.476 0 0 1 59.02 15.022 A 1.913 1.913 0 0 1 60.1 14.7 A 1.847 1.847 0 0 1 61.505 15.304 A 2.388 2.388 0 0 1 61.65 15.475 A 2.536 2.536 0 0 1 62.05 16.254 Q 62.166 16.611 62.214 17.047 A 6.089 6.089 0 0 1 62.25 17.725 Q 62.25 19.083 61.953 22.138 A 153.924 153.924 0 0 1 61.9 22.675 A 71.095 71.095 0 0 0 61.556 28.909 A 79.195 79.195 0 0 0 61.55 29.9 A 6.871 6.871 0 0 0 62.175 32.775 Q 62.8 34.15 62.8 35.275 Q 62.8 36.4 62.175 37.1 A 2.057 2.057 0 0 1 60.878 37.773 A 2.935 2.935 0 0 1 60.475 37.8 A 1.575 1.575 0 0 1 59.179 37.153 A 2.759 2.759 0 0 1 58.85 36.6 A 5.967 5.967 0 0 1 58.377 34.963 A 7.736 7.736 0 0 1 58.3 33.85 Q 58.3 28.781 58.138 24.715 Z M 98.075 20.85 A 7.286 7.286 0 0 0 95.851 26.144 A 9.134 9.134 0 0 0 95.85 26.25 A 7.58 7.58 0 0 0 96.614 29.665 A 7.636 7.636 0 0 0 98.075 31.675 Q 100.3 33.9 103.475 33.9 A 7.439 7.439 0 0 0 106.559 33.272 A 7.223 7.223 0 0 0 108.8 31.675 Q 110.95 29.45 110.95 26.25 A 7.858 7.858 0 0 0 110.361 23.174 A 7.431 7.431 0 0 0 108.8 20.85 A 7.126 7.126 0 0 0 103.623 18.651 A 9.062 9.062 0 0 0 103.475 18.65 A 7.55 7.55 0 0 0 99.958 19.467 A 7.702 7.702 0 0 0 98.075 20.85 Z M 175.225 20.85 A 7.286 7.286 0 0 0 173.001 26.144 A 9.134 9.134 0 0 0 173 26.25 A 7.58 7.58 0 0 0 173.764 29.665 A 7.636 7.636 0 0 0 175.225 31.675 Q 177.45 33.9 180.625 33.9 A 7.439 7.439 0 0 0 183.709 33.272 A 7.223 7.223 0 0 0 185.95 31.675 Q 188.1 29.45 188.1 26.25 A 7.858 7.858 0 0 0 187.511 23.174 A 7.431 7.431 0 0 0 185.95 20.85 A 7.126 7.126 0 0 0 180.773 18.651 A 9.062 9.062 0 0 0 180.625 18.65 A 7.55 7.55 0 0 0 177.108 19.467 A 7.702 7.702 0 0 0 175.225 20.85 Z M 41.95 25.25 Q 40.15 25.25 38.725 26.45 Q 37.3 27.65 37.3 29.55 Q 37.3 31.45 38.575 32.725 A 4.186 4.186 0 0 0 41.594 34 A 5.049 5.049 0 0 0 41.65 34 A 4.272 4.272 0 0 0 44.74 32.735 A 5.23 5.23 0 0 0 44.75 32.725 Q 46.05 31.45 46.05 29.7 A 6.108 6.108 0 0 0 45.786 27.889 A 5.63 5.63 0 0 0 45.6 27.375 A 504.798 504.798 0 0 1 45.444 27.001 Q 45.156 26.312 45.064 26.086 A 10.595 10.595 0 0 1 45.05 26.05 A 5.316 5.316 0 0 0 43.129 25.345 A 7.071 7.071 0 0 0 41.95 25.25 Z M 58.15 8.45 A 2.089 2.089 0 0 0 58.19 8.486 Q 58.833 9.05 59.9 9.05 Q 61 9.05 61.825 8.25 A 3.154 3.154 0 0 0 61.876 8.2 A 2.607 2.607 0 0 0 62.65 6.3 A 3.923 3.923 0 0 0 62.65 6.288 Q 62.649 5.897 62.569 5.568 A 2.032 2.032 0 0 0 61.975 4.525 A 2.262 2.262 0 0 0 60.98 3.992 A 3.148 3.148 0 0 0 60.2 3.9 A 2.543 2.543 0 0 0 59.16 4.113 A 2.743 2.743 0 0 0 58.3 4.725 Q 57.5 5.55 57.5 6.7 Q 57.5 7.158 57.603 7.529 A 1.924 1.924 0 0 0 58.15 8.45 Z" vector-effect="non-scaling-stroke" />
    </g>
</svg>