<?xml version="1.0" encoding="UTF-8"?>
<svg width="32px" height="32px" viewBox="0 0 32 32" version="1.1" xmlns="http://www.w3.org/2000/svg" xmlns:xlink="http://www.w3.org/1999/xlink">
    <title>Group</title>
    <g id="Page-1" stroke="none" stroke-width="1" fill="none" fill-rule="evenodd">
        <g id="Group">
            <rect id="Rectangle" fill="#07b132" x="0" y="0" width="32" height="32" rx="3"></rect>
            <path d="M 1.64 0 L 5.76 0.24 L 12 0 A 12.937 12.937 0 0 1 16.622 0.878 A 15.756 15.756 0 0 1 17.92 1.44 Q 19.68 2.28 21.04 3.52 Q 22.4 4.76 23.32 6.9 A 10.57 10.57 0 0 1 23.98 9.113 Q 24.24 10.484 24.24 12.12 A 15.411 15.411 0 0 1 23.434 16.969 A 18.446 18.446 0 0 1 22.92 18.34 A 17.412 17.412 0 0 1 21.237 21.457 A 14.166 14.166 0 0 1 19.48 23.56 Q 17.36 25.64 14.74 26.86 A 12.811 12.811 0 0 1 10.765 28.004 A 11.885 11.885 0 0 1 9.42 28.08 A 19.118 19.118 0 0 1 7.846 28.019 Q 6.239 27.886 5.18 27.46 A 3.071 3.071 0 0 1 4.436 27.043 A 2.02 2.02 0 0 1 3.64 25.36 A 16.373 16.373 0 0 1 3.646 24.975 Q 3.669 24.085 3.771 21.737 A 822.331 822.331 0 0 1 3.82 20.64 A 208.703 208.703 0 0 0 3.93 17.792 Q 4 15.545 4 13.72 A 182.785 182.785 0 0 0 3.983 11.119 Q 3.965 9.897 3.93 8.808 A 107.161 107.161 0 0 0 3.92 8.5 A 177.667 177.667 0 0 0 3.879 7.406 Q 3.824 6.069 3.761 5.105 A 51.751 51.751 0 0 0 3.74 4.8 A 99.252 99.252 0 0 1 3.701 4.233 Q 3.64 3.304 3.64 2.96 A 124.76 124.76 0 0 1 2.98 2.993 Q 1.989 3.04 1.56 3.04 Q 1 3.04 0.5 2.62 A 1.351 1.351 0 0 1 0.004 1.635 A 1.763 1.763 0 0 1 0 1.52 A 1.497 1.497 0 0 1 0.099 0.966 A 1.359 1.359 0 0 1 0.5 0.42 Q 1 0 1.64 0 Z M 7.38 4.62 A 54.874 54.874 0 0 0 7.331 5.37 Q 7.26 6.585 7.2 8.34 Q 7.139 10.132 7.125 12.99 A 369.195 369.195 0 0 0 7.12 14.84 Q 7.12 17.7 7.29 21.354 A 232.617 232.617 0 0 0 7.48 24.84 Q 8.8 25.24 10.88 25.24 A 9.157 9.157 0 0 0 16.094 23.582 A 13.25 13.25 0 0 0 18.04 21.96 A 11.066 11.066 0 0 0 21.255 14.949 A 14.964 14.964 0 0 0 21.32 13.54 A 13.749 13.749 0 0 0 20.956 10.28 A 9.142 9.142 0 0 0 18.24 5.58 A 10.036 10.036 0 0 0 14.303 3.401 Q 12.782 2.94 10.956 2.811 A 20.878 20.878 0 0 0 9.48 2.76 Q 8.191 2.76 7.58 2.794 A 9.049 9.049 0 0 0 7.48 2.8 A 7.209 7.209 0 0 1 7.475 3.038 Q 7.458 3.542 7.38 4.62 Z" id="D" fill="#FFFFFF" fill-rule="nonzero"></path>
        </g>
    </g>
</svg>
